<?xml version="1.0" encoding="UTF-8" standalone="no"?>
<!DOCTYPE score-partwise PUBLIC "-//Recordare//DTD MusicXML 3.0 Partwise//EN" "http://www.musicxml.org/dtds/partwise.dtd"><score-partwise version="3.0"><work><work-title>Let It Be</work-title></work><identification><creator type="composer">The Beatles</creator><encoding><encoding-date>2020-03-22</encoding-date><software>Opusmodus</software><encoding-description>https://opusmodus.com</encoding-description></encoding></identification><credit><credit-type>title</credit-type><credit-words>Let It Be</credit-words></credit><credit><credit-type>composer</credit-type><credit-words>The Beatles</credit-words></credit><part-list><score-part id="part--1"><part-name></part-name><part-abbreviation></part-abbreviation></score-part></part-list><part id="part--1"><measure number="1"><attributes><divisions>8</divisions><key><fifths>-2</fifths><mode>major</mode></key><time><beats>4</beats><beat-type>4</beat-type></time><clef><sign>F</sign><line>4</line></clef></attributes><direction placement="above" directive="yes"><direction-type><metronome><beat-unit>quarter</beat-unit><per-minute>120</per-minute></metronome></direction-type></direction><note><rest/><duration>24</duration><type>half</type><dot/></note><note><pitch><step>F</step><alter>0</alter><octave>3</octave></pitch><duration>4</duration><type>eighth</type><beam number="1">begin</beam></note><note><pitch><step>F</step><alter>0</alter><octave>3</octave></pitch><duration>4</duration><type>eighth</type><beam number="1">end</beam></note></measure><measure number="2"><attributes><divisions>8</divisions></attributes><note><pitch><step>F</step><alter>0</alter><octave>3</octave></pitch><duration>8</duration><type>quarter</type></note><note><pitch><step>F</step><alter>0</alter><octave>3</octave></pitch><duration>4</duration><type>eighth</type><beam number="1">begin</beam></note><note><pitch><step>G</step><alter>0</alter><octave>3</octave></pitch><duration>4</duration><type>eighth</type><beam number="1">end</beam><notations><tied type="start"/></notations></note><note><pitch><step>G</step><alter>0</alter><octave>3</octave></pitch><duration>8</duration><type>quarter</type><notations><tied type="stop"/></notations></note><note><pitch><step>D</step><alter>0</alter><octave>3</octave></pitch><duration>8</duration><type>quarter</type></note></measure><measure number="3"><attributes><divisions>8</divisions></attributes><note><pitch><step>F</step><alter>0</alter><octave>3</octave></pitch><duration>8</duration><type>quarter</type></note><note><pitch><step>F</step><alter>0</alter><octave>3</octave></pitch><duration>8</duration><type>quarter</type></note><note><pitch><step>B</step><alter>-1</alter><octave>3</octave></pitch><duration>4</duration><type>eighth</type><beam number="1">begin</beam></note><note><pitch><step>C</step><alter>0</alter><octave>4</octave></pitch><duration>4</duration><type>eighth</type><beam number="1">end</beam><notations><tied type="start"/></notations></note><note><pitch><step>C</step><alter>0</alter><octave>4</octave></pitch><duration>8</duration><type>quarter</type><notations><tied type="stop"/></notations></note></measure><measure number="4"><attributes><divisions>8</divisions></attributes><note><pitch><step>D</step><alter>0</alter><octave>4</octave></pitch><duration>4</duration><type>eighth</type><beam number="1">begin</beam></note><note><pitch><step>D</step><alter>0</alter><octave>4</octave></pitch><duration>4</duration><type>eighth</type><beam number="1">end</beam></note><note><pitch><step>D</step><alter>0</alter><octave>4</octave></pitch><duration>8</duration><type>quarter</type><notations><tied type="start"/></notations></note><note><pitch><step>D</step><alter>0</alter><octave>4</octave></pitch><duration>8</duration><type>quarter</type><notations><tied type="stop"/></notations></note><note><pitch><step>C</step><alter>0</alter><octave>4</octave></pitch><duration>8</duration><type>quarter</type></note></measure><measure number="5"><attributes><divisions>8</divisions></attributes><note><pitch><step>C</step><alter>0</alter><octave>4</octave></pitch><duration>8</duration><type>quarter</type></note><note><pitch><step>B</step><alter>-1</alter><octave>3</octave></pitch><duration>4</duration><type>eighth</type><beam number="1">begin</beam></note><note><pitch><step>B</step><alter>-1</alter><octave>3</octave></pitch><duration>4</duration><type>eighth</type><beam number="1">end</beam><notations><tied type="start"/></notations></note><note><pitch><step>B</step><alter>-1</alter><octave>3</octave></pitch><duration>16</duration><type>half</type><notations><tied type="stop"/></notations></note></measure><measure number="6"><attributes><divisions>8</divisions></attributes><note><pitch><step>D</step><alter>0</alter><octave>4</octave></pitch><duration>8</duration><type>quarter</type></note><note><pitch><step>D</step><alter>0</alter><octave>4</octave></pitch><duration>4</duration><type>eighth</type><beam number="1">begin</beam></note><note><pitch><step>E</step><alter>-1</alter><octave>4</octave></pitch><duration>4</duration><type>eighth</type><beam number="1">end</beam><notations><tied type="start"/></notations></note><note><pitch><step>E</step><alter>-1</alter><octave>4</octave></pitch><duration>8</duration><type>quarter</type><notations><tied type="stop"/></notations></note><note><pitch><step>D</step><alter>0</alter><octave>4</octave></pitch><duration>8</duration><type>quarter</type></note></measure><measure number="7"><attributes><divisions>8</divisions></attributes><note><pitch><step>D</step><alter>0</alter><octave>4</octave></pitch><duration>4</duration><type>eighth</type><beam number="1">begin</beam></note><note><pitch><step>C</step><alter>0</alter><octave>4</octave></pitch><duration>4</duration><type>eighth</type><beam number="1">end</beam><notations><tied type="start"/></notations></note><note><pitch><step>C</step><alter>0</alter><octave>4</octave></pitch><duration>8</duration><type>quarter</type><notations><tied type="stop"/></notations></note><note><pitch><step>D</step><alter>0</alter><octave>4</octave></pitch><duration>8</duration><type>quarter</type></note><note><pitch><step>C</step><alter>0</alter><octave>4</octave></pitch><duration>8</duration><type>quarter</type></note></measure><measure number="8"><attributes><divisions>8</divisions></attributes><note><pitch><step>C</step><alter>0</alter><octave>4</octave></pitch><duration>4</duration><type>eighth</type><beam number="1">begin</beam></note><note><pitch><step>B</step><alter>-1</alter><octave>3</octave></pitch><duration>4</duration><type>eighth</type><beam number="1">end</beam><notations><tied type="start"/></notations></note><note><pitch><step>B</step><alter>-1</alter><octave>3</octave></pitch><duration>16</duration><type>half</type><notations><tied type="stop"/></notations></note><note><rest/><duration>8</duration><type>quarter</type></note><barline location="right"><repeat direction="backward" times="2"/></barline></measure><measure number="9"><attributes><divisions>8</divisions></attributes><note><rest/><duration>16</duration><type>half</type></note><note><pitch><step>D</step><alter>0</alter><octave>4</octave></pitch><duration>4</duration><type>eighth</type><beam number="1">begin</beam></note><note><pitch><step>C</step><alter>0</alter><octave>4</octave></pitch><duration>4</duration><type>eighth</type><beam number="1">end</beam><notations><tied type="start"/></notations></note><note><pitch><step>C</step><alter>0</alter><octave>4</octave></pitch><duration>8</duration><type>quarter</type><notations><tied type="stop"/></notations></note></measure><measure number="10"><attributes><divisions>8</divisions></attributes><note><pitch><step>B</step><alter>-1</alter><octave>3</octave></pitch><duration>16</duration><type>half</type></note><note><pitch><step>D</step><alter>0</alter><octave>4</octave></pitch><duration>4</duration><type>eighth</type><beam number="1">begin</beam></note><note><pitch><step>F</step><alter>0</alter><octave>4</octave></pitch><duration>4</duration><type>eighth</type><beam number="1">end</beam><notations><tied type="start"/></notations></note><note><pitch><step>F</step><alter>0</alter><octave>4</octave></pitch><duration>8</duration><type>quarter</type><notations><tied type="stop"/></notations></note></measure><measure number="11"><attributes><divisions>8</divisions></attributes><note><pitch><step>G</step><alter>0</alter><octave>4</octave></pitch><duration>4</duration><type>eighth</type><beam number="1">begin</beam></note><note><pitch><step>F</step><alter>0</alter><octave>4</octave></pitch><duration>4</duration><type>eighth</type><beam number="1">end</beam><notations><tied type="start"/></notations></note><note><pitch><step>F</step><alter>0</alter><octave>4</octave></pitch><duration>8</duration><type>quarter</type><notations><tied type="stop"/></notations></note><note><pitch><step>D</step><alter>0</alter><octave>4</octave></pitch><duration>8</duration><type>quarter</type></note><note><pitch><step>C</step><alter>0</alter><octave>4</octave></pitch><duration>8</duration><type>quarter</type></note></measure><measure number="12"><attributes><divisions>8</divisions></attributes><note><pitch><step>B</step><alter>-1</alter><octave>3</octave></pitch><duration>8</duration><type>quarter</type></note><note><pitch><step>C</step><alter>0</alter><octave>4</octave></pitch><duration>4</duration><type>eighth</type><beam number="1">begin</beam></note><note><pitch><step>G</step><alter>0</alter><octave>3</octave></pitch><duration>4</duration><type>eighth</type><beam number="1">end</beam><notations><tied type="start"/></notations></note><note><pitch><step>G</step><alter>0</alter><octave>3</octave></pitch><duration>4</duration><type>eighth</type><beam number="1">begin</beam><notations><tied type="stop"/></notations></note><note><pitch><step>F</step><alter>0</alter><octave>3</octave></pitch><duration>4</duration><type>eighth</type><beam number="1">end</beam></note><note><pitch><step>D</step><alter>0</alter><octave>4</octave></pitch><duration>8</duration><type>quarter</type><notations><tied type="start"/></notations></note></measure><measure number="13"><attributes><divisions>4</divisions></attributes><note><pitch><step>D</step><alter>0</alter><octave>4</octave></pitch><duration>8</duration><type>half</type><notations><tied type="stop"/></notations></note><note><rest/><duration>8</duration><type>half</type></note></measure><measure number="14"><attributes><divisions>4</divisions></attributes><note><pitch><step>D</step><alter>0</alter><octave>4</octave></pitch><duration>4</duration><type>quarter</type></note><note><pitch><step>D</step><alter>0</alter><octave>4</octave></pitch><duration>4</duration><type>quarter</type></note><note><pitch><step>E</step><alter>-1</alter><octave>4</octave></pitch><duration>4</duration><type>quarter</type></note><note><pitch><step>D</step><alter>0</alter><octave>4</octave></pitch><duration>4</duration><type>quarter</type></note></measure><measure number="15"><attributes><divisions>8</divisions></attributes><note><pitch><step>D</step><alter>0</alter><octave>4</octave></pitch><duration>4</duration><type>eighth</type><beam number="1">begin</beam></note><note><pitch><step>C</step><alter>0</alter><octave>4</octave></pitch><duration>4</duration><type>eighth</type><beam number="1">end</beam><notations><tied type="start"/></notations></note><note><pitch><step>C</step><alter>0</alter><octave>4</octave></pitch><duration>8</duration><type>quarter</type><notations><tied type="stop"/></notations></note><note><pitch><step>D</step><alter>0</alter><octave>4</octave></pitch><duration>8</duration><type>quarter</type></note><note><pitch><step>C</step><alter>0</alter><octave>4</octave></pitch><duration>8</duration><type>quarter</type></note></measure><measure number="16"><attributes><divisions>8</divisions></attributes><note><pitch><step>C</step><alter>0</alter><octave>4</octave></pitch><duration>4</duration><type>eighth</type><beam number="1">begin</beam></note><note><pitch><step>B</step><alter>-1</alter><octave>3</octave></pitch><duration>4</duration><type>eighth</type><beam number="1">end</beam><notations><tied type="start"/></notations></note><note><pitch><step>B</step><alter>-1</alter><octave>3</octave></pitch><duration>8</duration><type>quarter</type><notations><tied type="stop"/><tied type="start"/></notations></note><note><pitch><step>B</step><alter>-1</alter><octave>3</octave></pitch><duration>16</duration><type>half</type><notations><tied type="stop"/></notations></note><barline><bar-style>light-heavy</bar-style></barline></measure></part></score-partwise>