<?xml version="1.0" encoding="UTF-8" standalone="no"?>
<!DOCTYPE score-partwise PUBLIC "-//Recordare//DTD MusicXML 3.0 Partwise//EN" "http://www.musicxml.org/dtds/partwise.dtd"><score-partwise version="3.0"><work><work-title>Sweet Baby James</work-title></work><identification><creator type="composer">James Taylor</creator><encoding><encoding-date>2020-03-24</encoding-date><software>Opusmodus</software><encoding-description>https://opusmodus.com</encoding-description></encoding></identification><credit><credit-type>title</credit-type><credit-words>Sweet Baby James</credit-words></credit><credit><credit-type>composer</credit-type><credit-words>James Taylor</credit-words></credit><part-list><score-part id="part--1"><part-name></part-name><part-abbreviation></part-abbreviation></score-part></part-list><part id="part--1"><measure number="1"><attributes><divisions>4</divisions><key><fifths>-1</fifths><mode>major</mode></key><time><beats>3</beats><beat-type>4</beat-type></time><clef><sign>F</sign><line>4</line></clef></attributes><direction placement="above" directive="yes"><direction-type><metronome><beat-unit>quarter</beat-unit><per-minute>144</per-minute></metronome></direction-type></direction><note><rest/><duration>8</duration><type>half</type></note><note><pitch><step>C</step><alter>0</alter><octave>3</octave></pitch><duration>4</duration><type>quarter</type></note></measure><measure number="2"><attributes><divisions>8</divisions></attributes><note><pitch><step>F</step><alter>0</alter><octave>3</octave></pitch><duration>4</duration><type>eighth</type><beam number="1">begin</beam></note><note><pitch><step>A</step><alter>0</alter><octave>3</octave></pitch><duration>4</duration><type>eighth</type><beam number="1">end</beam></note><note><pitch><step>C</step><alter>0</alter><octave>4</octave></pitch><duration>8</duration><type>quarter</type></note><note><pitch><step>D</step><alter>0</alter><octave>4</octave></pitch><duration>8</duration><type>quarter</type></note></measure><measure number="3"><attributes><divisions>4</divisions></attributes><note><pitch><step>C</step><alter>0</alter><octave>4</octave></pitch><duration>12</duration><type>half</type><dot/></note></measure><measure number="4"><attributes><divisions>8</divisions></attributes><note><pitch><step>D</step><alter>0</alter><octave>4</octave></pitch><duration>8</duration><type>quarter</type></note><note><pitch><step>C</step><alter>0</alter><octave>4</octave></pitch><duration>8</duration><type>quarter</type></note><note><pitch><step>B</step><alter>-1</alter><octave>3</octave></pitch><duration>4</duration><type>eighth</type><beam number="1">begin</beam></note><note><pitch><step>C</step><alter>0</alter><octave>4</octave></pitch><duration>4</duration><type>eighth</type><beam number="1">end</beam><notations><tied type="start"/></notations></note></measure><measure number="5"><attributes><divisions>4</divisions></attributes><note><pitch><step>C</step><alter>0</alter><octave>4</octave></pitch><duration>12</duration><type>half</type><dot/><notations><tied type="stop"/><tied type="start"/></notations></note></measure><measure number="6"><attributes><divisions>8</divisions></attributes><note><pitch><step>C</step><alter>0</alter><octave>4</octave></pitch><duration>16</duration><type>half</type><notations><tied type="stop"/><tied type="start"/></notations></note><note><pitch><step>C</step><alter>0</alter><octave>4</octave></pitch><duration>4</duration><type>eighth</type><beam number="1">begin</beam><notations><tied type="stop"/></notations></note><note><pitch><step>C</step><alter>0</alter><octave>4</octave></pitch><duration>4</duration><type>eighth</type><beam number="1">end</beam></note></measure><measure number="7"><attributes><divisions>4</divisions></attributes><note><pitch><step>D</step><alter>0</alter><octave>4</octave></pitch><duration>4</duration><type>quarter</type></note><note><pitch><step>D</step><alter>0</alter><octave>4</octave></pitch><duration>4</duration><type>quarter</type></note><note><pitch><step>D</step><alter>0</alter><octave>4</octave></pitch><duration>4</duration><type>quarter</type></note></measure><measure number="8"><attributes><divisions>8</divisions></attributes><note><pitch><step>E</step><alter>0</alter><octave>4</octave></pitch><duration>4</duration><type>eighth</type><beam number="1">begin</beam></note><note><pitch><step>D</step><alter>0</alter><octave>4</octave></pitch><duration>4</duration><type>eighth</type><beam number="1">end</beam><notations><tied type="start"/></notations></note><note><pitch><step>D</step><alter>0</alter><octave>4</octave></pitch><duration>8</duration><type>quarter</type><notations><tied type="stop"/></notations></note><note><pitch><step>D</step><alter>0</alter><octave>4</octave></pitch><duration>4</duration><type>eighth</type><beam number="1">begin</beam></note><note><pitch><step>D</step><alter>0</alter><octave>4</octave></pitch><duration>4</duration><type>eighth</type><beam number="1">end</beam></note></measure><measure number="9"><attributes><divisions>4</divisions></attributes><note><pitch><step>C</step><alter>0</alter><octave>4</octave></pitch><duration>4</duration><type>quarter</type></note><note><pitch><step>A</step><alter>0</alter><octave>3</octave></pitch><duration>4</duration><type>quarter</type></note><note><pitch><step>F</step><alter>0</alter><octave>3</octave></pitch><duration>4</duration><type>quarter</type></note></measure><measure number="10"><attributes><divisions>8</divisions></attributes><note><pitch><step>A</step><alter>0</alter><octave>3</octave></pitch><duration>4</duration><type>eighth</type><beam number="1">begin</beam></note><note><pitch><step>C</step><alter>0</alter><octave>4</octave></pitch><duration>4</duration><type>eighth</type><beam number="1">end</beam><notations><tied type="start"/></notations></note><note><pitch><step>C</step><alter>0</alter><octave>4</octave></pitch><duration>16</duration><type>half</type><notations><tied type="stop"/><tied type="start"/></notations></note></measure><measure number="11"><attributes><divisions>8</divisions></attributes><note><pitch><step>C</step><alter>0</alter><octave>4</octave></pitch><duration>16</duration><type>half</type><notations><tied type="stop"/><tied type="start"/></notations></note><note><pitch><step>C</step><alter>0</alter><octave>4</octave></pitch><duration>4</duration><type>eighth</type><beam number="1">begin</beam><notations><tied type="stop"/></notations></note><note><pitch><step>C</step><alter>0</alter><octave>4</octave></pitch><duration>4</duration><type>eighth</type><beam number="1">end</beam></note></measure><measure number="12"><attributes><divisions>4</divisions></attributes><note><pitch><step>D</step><alter>0</alter><octave>4</octave></pitch><duration>4</duration><type>quarter</type></note><note><pitch><step>D</step><alter>0</alter><octave>4</octave></pitch><duration>4</duration><type>quarter</type></note><note><pitch><step>D</step><alter>0</alter><octave>4</octave></pitch><duration>4</duration><type>quarter</type></note></measure><measure number="13"><attributes><divisions>8</divisions></attributes><note><pitch><step>E</step><alter>0</alter><octave>4</octave></pitch><duration>4</duration><type>eighth</type><beam number="1">begin</beam></note><note><pitch><step>D</step><alter>0</alter><octave>4</octave></pitch><duration>4</duration><type>eighth</type><beam number="1">end</beam><notations><tied type="start"/></notations></note><note><pitch><step>D</step><alter>0</alter><octave>4</octave></pitch><duration>8</duration><type>quarter</type><notations><tied type="stop"/></notations></note><note><pitch><step>D</step><alter>0</alter><octave>4</octave></pitch><duration>4</duration><type>eighth</type><beam number="1">begin</beam></note><note><pitch><step>D</step><alter>0</alter><octave>4</octave></pitch><duration>4</duration><type>eighth</type><beam number="1">end</beam></note></measure><measure number="14"><attributes><divisions>4</divisions></attributes><note><pitch><step>C</step><alter>0</alter><octave>4</octave></pitch><duration>4</duration><type>quarter</type></note><note><pitch><step>A</step><alter>0</alter><octave>3</octave></pitch><duration>4</duration><type>quarter</type></note><note><pitch><step>F</step><alter>0</alter><octave>3</octave></pitch><duration>4</duration><type>quarter</type></note></measure><measure number="15"><attributes><divisions>8</divisions></attributes><note><pitch><step>A</step><alter>0</alter><octave>3</octave></pitch><duration>4</duration><type>eighth</type><beam number="1">begin</beam></note><note><pitch><step>C</step><alter>0</alter><octave>4</octave></pitch><duration>4</duration><type>eighth</type><beam number="1">end</beam><notations><tied type="start"/></notations></note><note><pitch><step>C</step><alter>0</alter><octave>4</octave></pitch><duration>16</duration><type>half</type><notations><tied type="stop"/></notations></note></measure><measure number="16"><attributes><divisions>8</divisions></attributes><note><pitch><step>B</step><alter>-1</alter><octave>3</octave></pitch><duration>4</duration><type>eighth</type><beam number="1">begin</beam></note><note><pitch><step>B</step><alter>-1</alter><octave>3</octave></pitch><duration>4</duration><type>eighth</type><beam number="1">end</beam><notations><tied type="start"/></notations></note><note><pitch><step>B</step><alter>-1</alter><octave>3</octave></pitch><duration>8</duration><type>quarter</type><notations><tied type="stop"/></notations></note><note><pitch><step>B</step><alter>-1</alter><octave>3</octave></pitch><duration>8</duration><type>quarter</type></note></measure><measure number="17"><attributes><divisions>8</divisions></attributes><note><pitch><step>A</step><alter>0</alter><octave>3</octave></pitch><duration>4</duration><type>eighth</type><beam number="1">begin</beam></note><note><pitch><step>G</step><alter>0</alter><octave>3</octave></pitch><duration>4</duration><type>eighth</type><beam number="1">end</beam><notations><tied type="start"/></notations></note><note><pitch><step>G</step><alter>0</alter><octave>3</octave></pitch><duration>8</duration><type>quarter</type><notations><tied type="stop"/></notations></note><note><pitch><step>F</step><alter>0</alter><octave>3</octave></pitch><duration>8</duration><type>quarter</type></note></measure><measure number="18"><attributes><divisions>8</divisions></attributes><note><pitch><step>G</step><alter>0</alter><octave>3</octave></pitch><duration>8</duration><type>quarter</type></note><note><pitch><step>G</step><alter>0</alter><octave>3</octave></pitch><duration>8</duration><type>quarter</type></note><note><pitch><step>A</step><alter>0</alter><octave>3</octave></pitch><duration>4</duration><type>eighth</type><beam number="1">begin</beam></note><note><pitch><step>G</step><alter>0</alter><octave>3</octave></pitch><duration>4</duration><type>eighth</type><beam number="1">end</beam><notations><tied type="start"/></notations></note></measure><measure number="19"><attributes><divisions>4</divisions></attributes><note><pitch><step>G</step><alter>0</alter><octave>3</octave></pitch><duration>12</duration><type>half</type><dot/><notations><tied type="stop"/><tied type="start"/></notations></note></measure><measure number="20"><attributes><divisions>4</divisions></attributes><note><pitch><step>G</step><alter>0</alter><octave>3</octave></pitch><duration>12</duration><type>half</type><dot/><notations><tied type="stop"/></notations></note></measure><measure number="21"><attributes><divisions>4</divisions></attributes><note><rest measure="yes"/><duration>12</duration><type>whole</type></note></measure><measure number="22"><attributes><divisions>8</divisions></attributes><note><rest/><duration>16</duration><type>half</type></note><note><rest/><duration>4</duration><type>eighth</type></note><note><pitch><step>C</step><alter>0</alter><octave>3</octave></pitch><duration>4</duration><type>eighth</type></note></measure><measure number="23"><direction><direction-type><rehearsal enclosure="square">1</rehearsal></direction-type></direction><attributes><divisions>8</divisions></attributes><note><pitch><step>D</step><alter>0</alter><octave>4</octave></pitch><duration>12</duration><type>quarter</type><dot/></note><note><pitch><step>D</step><alter>0</alter><octave>4</octave></pitch><duration>4</duration><type>eighth</type></note><note><pitch><step>D</step><alter>0</alter><octave>4</octave></pitch><duration>8</duration><type>quarter</type></note></measure><measure number="24"><attributes><divisions>4</divisions></attributes><note><pitch><step>D</step><alter>0</alter><octave>4</octave></pitch><duration>4</duration><type>quarter</type></note><note><pitch><step>C</step><alter>0</alter><octave>4</octave></pitch><duration>4</duration><type>quarter</type></note><note><pitch><step>B</step><alter>-1</alter><octave>3</octave></pitch><duration>4</duration><type>quarter</type></note></measure><measure number="25"><attributes><divisions>8</divisions></attributes><note><pitch><step>D</step><alter>0</alter><octave>4</octave></pitch><duration>8</duration><type>quarter</type></note><note><pitch><step>C</step><alter>0</alter><octave>4</octave></pitch><duration>8</duration><type>quarter</type></note><note><pitch><step>B</step><alter>-1</alter><octave>3</octave></pitch><duration>4</duration><type>eighth</type><beam number="1">begin</beam></note><note><pitch><step>C</step><alter>0</alter><octave>4</octave></pitch><duration>4</duration><type>eighth</type><beam number="1">end</beam><notations><tied type="start"/></notations></note></measure><measure number="26"><attributes><divisions>4</divisions></attributes><note><pitch><step>C</step><alter>0</alter><octave>4</octave></pitch><duration>12</duration><type>half</type><dot/><notations><tied type="stop"/></notations></note></measure><measure number="27"><attributes><divisions>8</divisions></attributes><note><pitch><step>D</step><alter>0</alter><octave>4</octave></pitch><duration>4</duration><type>eighth</type><beam number="1">begin</beam></note><note><pitch><step>D</step><alter>0</alter><octave>4</octave></pitch><duration>4</duration><type>eighth</type><beam number="1">end</beam><notations><tied type="start"/></notations></note><note><pitch><step>D</step><alter>0</alter><octave>4</octave></pitch><duration>4</duration><type>eighth</type><beam number="1">begin</beam><notations><tied type="stop"/></notations></note><note><pitch><step>D</step><alter>0</alter><octave>4</octave></pitch><duration>4</duration><type>eighth</type><beam number="1">end</beam></note><note><pitch><step>D</step><alter>0</alter><octave>4</octave></pitch><duration>8</duration><type>quarter</type></note></measure><measure number="28"><attributes><divisions>4</divisions></attributes><note><pitch><step>E</step><alter>0</alter><octave>4</octave></pitch><duration>4</duration><type>quarter</type></note><note><pitch><step>D</step><alter>0</alter><octave>4</octave></pitch><duration>4</duration><type>quarter</type></note><note><pitch><step>D</step><alter>0</alter><octave>4</octave></pitch><duration>4</duration><type>quarter</type></note></measure><measure number="29"><attributes><divisions>8</divisions></attributes><note><pitch><step>C</step><alter>0</alter><octave>4</octave></pitch><duration>8</duration><type>quarter</type></note><note><pitch><step>A</step><alter>0</alter><octave>3</octave></pitch><duration>8</duration><type>quarter</type></note><note><pitch><step>F</step><alter>0</alter><octave>3</octave></pitch><duration>4</duration><type>eighth</type><beam number="1">begin</beam></note><note><pitch><step>G</step><alter>0</alter><octave>3</octave></pitch><duration>4</duration><type>eighth</type><beam number="1">end</beam><notations><tied type="start"/></notations></note></measure><measure number="30"><attributes><divisions>8</divisions></attributes><note><pitch><step>G</step><alter>0</alter><octave>3</octave></pitch><duration>16</duration><type>half</type><notations><tied type="stop"/><tied type="start"/></notations></note><note><pitch><step>G</step><alter>0</alter><octave>3</octave></pitch><duration>4</duration><type>eighth</type><beam number="1">begin</beam><notations><tied type="stop"/></notations></note><note><pitch><step>C</step><alter>0</alter><octave>3</octave></pitch><duration>4</duration><type>eighth</type><beam number="1">end</beam></note></measure><measure number="31"><attributes><divisions>8</divisions></attributes><note><pitch><step>D</step><alter>0</alter><octave>4</octave></pitch><duration>12</duration><type>quarter</type><dot/></note><note><pitch><step>D</step><alter>0</alter><octave>4</octave></pitch><duration>4</duration><type>eighth</type></note><note><pitch><step>D</step><alter>0</alter><octave>4</octave></pitch><duration>8</duration><type>quarter</type></note></measure><measure number="32"><attributes><divisions>4</divisions></attributes><note><pitch><step>E</step><alter>0</alter><octave>4</octave></pitch><duration>4</duration><type>quarter</type></note><note><pitch><step>D</step><alter>0</alter><octave>4</octave></pitch><duration>4</duration><type>quarter</type></note><note><pitch><step>D</step><alter>0</alter><octave>4</octave></pitch><duration>4</duration><type>quarter</type></note></measure><measure number="33"><attributes><divisions>8</divisions></attributes><note><pitch><step>C</step><alter>0</alter><octave>4</octave></pitch><duration>8</duration><type>quarter</type></note><note><pitch><step>A</step><alter>0</alter><octave>3</octave></pitch><duration>8</duration><type>quarter</type></note><note><pitch><step>F</step><alter>0</alter><octave>3</octave></pitch><duration>4</duration><type>eighth</type><beam number="1">begin</beam></note><note><pitch><step>A</step><alter>0</alter><octave>3</octave></pitch><duration>4</duration><type>eighth</type><beam number="1">end</beam><notations><tied type="start"/></notations></note></measure><measure number="34"><attributes><divisions>8</divisions></attributes><note><pitch><step>A</step><alter>0</alter><octave>3</octave></pitch><duration>16</duration><type>half</type><notations><tied type="stop"/><tied type="start"/></notations></note><note><pitch><step>A</step><alter>0</alter><octave>3</octave></pitch><duration>4</duration><type>eighth</type><beam number="1">begin</beam><notations><tied type="stop"/></notations></note><note><pitch><step>F</step><alter>0</alter><octave>3</octave></pitch><duration>4</duration><type>eighth</type><beam number="1">end</beam></note></measure><measure number="35"><attributes><divisions>8</divisions></attributes><note><pitch><step>G</step><alter>0</alter><octave>3</octave></pitch><duration>8</duration><type>quarter</type></note><note><pitch><step>G</step><alter>0</alter><octave>3</octave></pitch><duration>8</duration><type>quarter</type></note><note><pitch><step>G</step><alter>0</alter><octave>3</octave></pitch><duration>4</duration><type>eighth</type><beam number="1">begin</beam></note><note><pitch><step>G</step><alter>0</alter><octave>3</octave></pitch><duration>4</duration><type>eighth</type><beam number="1">end</beam><notations><tied type="start"/></notations></note></measure><measure number="36"><attributes><divisions>8</divisions></attributes><note><pitch><step>G</step><alter>0</alter><octave>3</octave></pitch><duration>8</duration><type>quarter</type><notations><tied type="stop"/></notations></note><note><pitch><step>G</step><alter>0</alter><octave>3</octave></pitch><duration>8</duration><type>quarter</type></note><note><pitch><step>A</step><alter>0</alter><octave>3</octave></pitch><duration>4</duration><type>eighth</type><beam number="1">begin</beam></note><note><pitch><step>G</step><alter>0</alter><octave>3</octave></pitch><duration>4</duration><type>eighth</type><beam number="1">end</beam><notations><tied type="start"/></notations></note></measure><measure number="37"><attributes><divisions>4</divisions></attributes><note><pitch><step>G</step><alter>0</alter><octave>3</octave></pitch><duration>12</duration><type>half</type><dot/><notations><tied type="stop"/><tied type="start"/></notations></note></measure><measure number="38"><attributes><divisions>4</divisions></attributes><note><pitch><step>G</step><alter>0</alter><octave>3</octave></pitch><duration>12</duration><type>half</type><dot/><notations><tied type="stop"/></notations></note></measure><measure number="39"><attributes><divisions>4</divisions></attributes><note><rest measure="yes"/><duration>12</duration><type>whole</type></note></measure><measure number="40"><attributes><divisions>4</divisions></attributes><note><rest measure="yes"/><duration>12</duration><type>whole</type></note></measure><measure number="41"><direction><direction-type><rehearsal enclosure="square">2</rehearsal></direction-type></direction><attributes><divisions>8</divisions></attributes><note><pitch><step>A</step><alter>0</alter><octave>3</octave></pitch><duration>8</duration><type>quarter</type></note><note><pitch><step>A</step><alter>0</alter><octave>3</octave></pitch><duration>8</duration><type>quarter</type><notations><tied type="start"/></notations></note><note><pitch><step>A</step><alter>0</alter><octave>3</octave></pitch><duration>4</duration><type>eighth</type><beam number="1">begin</beam><notations><tied type="stop"/></notations></note><note><pitch><step>A</step><alter>0</alter><octave>3</octave></pitch><duration>4</duration><type>eighth</type><beam number="1">end</beam></note></measure><measure number="42"><attributes><divisions>4</divisions></attributes><note><pitch><step>B</step><alter>-1</alter><octave>3</octave></pitch><duration>8</duration><type>half</type></note><note><pitch><step>A</step><alter>0</alter><octave>3</octave></pitch><duration>4</duration><type>quarter</type></note></measure><measure number="43"><attributes><divisions>4</divisions></attributes><note><pitch><step>G</step><alter>0</alter><octave>3</octave></pitch><duration>8</duration><type>half</type></note><note><pitch><step>A</step><alter>0</alter><octave>3</octave></pitch><duration>4</duration><type>quarter</type><notations><tied type="start"/></notations></note></measure><measure number="44"><attributes><divisions>4</divisions></attributes><note><pitch><step>A</step><alter>0</alter><octave>3</octave></pitch><duration>4</duration><type>quarter</type><notations><tied type="stop"/></notations></note><note><rest/><duration>4</duration><type>quarter</type></note><note><rest/><duration>4</duration><type>quarter</type></note></measure><measure number="45"><attributes><divisions>8</divisions></attributes><note><pitch><step>D</step><alter>0</alter><octave>4</octave></pitch><duration>12</duration><type>quarter</type><dot/></note><note><pitch><step>D</step><alter>0</alter><octave>4</octave></pitch><duration>4</duration><type>eighth</type></note><note><pitch><step>D</step><alter>0</alter><octave>4</octave></pitch><duration>8</duration><type>quarter</type></note></measure><measure number="46"><attributes><divisions>8</divisions></attributes><note><pitch><step>D</step><alter>0</alter><octave>4</octave></pitch><duration>8</duration><type>quarter</type></note><note><pitch><step>D</step><alter>0</alter><octave>4</octave></pitch><duration>8</duration><type>quarter</type></note><note><pitch><step>C</step><alter>0</alter><octave>4</octave></pitch><duration>4</duration><type>eighth</type><beam number="1">begin</beam></note><note><pitch><step>C</step><alter>0</alter><octave>4</octave></pitch><duration>4</duration><type>eighth</type><beam number="1">end</beam><notations><tied type="start"/></notations></note></measure><measure number="47"><attributes><divisions>4</divisions></attributes><note><pitch><step>C</step><alter>0</alter><octave>4</octave></pitch><duration>8</duration><type>half</type><notations><tied type="stop"/></notations></note><note><rest/><duration>4</duration><type>quarter</type></note></measure><measure number="48"><attributes><divisions>4</divisions></attributes><note><rest measure="yes"/><duration>12</duration><type>whole</type></note></measure><measure number="49"><attributes><divisions>8</divisions></attributes><note><pitch><step>D</step><alter>0</alter><octave>4</octave></pitch><duration>8</duration><type>quarter</type></note><note><pitch><step>D</step><alter>0</alter><octave>4</octave></pitch><duration>8</duration><type>quarter</type></note><note><pitch><step>D</step><alter>0</alter><octave>4</octave></pitch><duration>4</duration><type>eighth</type><beam number="1">begin</beam></note><note><pitch><step>D</step><alter>0</alter><octave>4</octave></pitch><duration>4</duration><type>eighth</type><beam number="1">end</beam><notations><tied type="start"/></notations></note></measure><measure number="50"><attributes><divisions>4</divisions></attributes><note><pitch><step>D</step><alter>0</alter><octave>4</octave></pitch><duration>4</duration><type>quarter</type><notations><tied type="stop"/></notations></note><note><pitch><step>D</step><alter>0</alter><octave>4</octave></pitch><duration>4</duration><type>quarter</type></note><note><pitch><step>C</step><alter>0</alter><octave>4</octave></pitch><duration>4</duration><type>quarter</type></note></measure><measure number="51"><attributes><divisions>8</divisions></attributes><note><pitch><step>C</step><alter>0</alter><octave>4</octave></pitch><duration>4</duration><type>eighth</type><beam number="1">begin</beam></note><note><pitch><step>A</step><alter>0</alter><octave>3</octave></pitch><duration>4</duration><type>eighth</type><beam number="1">end</beam><notations><tied type="start"/></notations></note><note><pitch><step>A</step><alter>0</alter><octave>3</octave></pitch><duration>4</duration><type>eighth</type><beam number="1">begin</beam><notations><tied type="stop"/></notations></note><note><pitch><step>F</step><alter>0</alter><octave>3</octave></pitch><duration>4</duration><type>eighth</type><beam number="1">end</beam><notations><tied type="start"/></notations></note><note><pitch><step>F</step><alter>0</alter><octave>3</octave></pitch><duration>8</duration><type>quarter</type><notations><tied type="stop"/></notations></note></measure><measure number="52"><attributes><divisions>8</divisions></attributes><note><pitch><step>F</step><alter>0</alter><octave>3</octave></pitch><duration>16</duration><type>half</type></note><note><pitch><step>F</step><alter>0</alter><octave>3</octave></pitch><duration>4</duration><type>eighth</type><beam number="1">begin</beam></note><note><pitch><step>F</step><alter>0</alter><octave>3</octave></pitch><duration>4</duration><type>eighth</type><beam number="1">end</beam></note></measure><measure number="53"><attributes><divisions>8</divisions></attributes><note><pitch><step>G</step><alter>0</alter><octave>3</octave></pitch><duration>8</duration><type>quarter</type></note><note><pitch><step>G</step><alter>0</alter><octave>3</octave></pitch><duration>12</duration><type>quarter</type><dot/></note><note><pitch><step>G</step><alter>0</alter><octave>3</octave></pitch><duration>4</duration><type>eighth</type></note></measure><measure number="54"><attributes><divisions>8</divisions></attributes><note><pitch><step>G</step><alter>0</alter><octave>3</octave></pitch><duration>8</duration><type>quarter</type></note><note><pitch><step>G</step><alter>0</alter><octave>3</octave></pitch><duration>8</duration><type>quarter</type></note><note><pitch><step>A</step><alter>0</alter><octave>3</octave></pitch><duration>4</duration><type>eighth</type><beam number="1">begin</beam></note><note><pitch><step>G</step><alter>0</alter><octave>3</octave></pitch><duration>4</duration><type>eighth</type><beam number="1">end</beam><notations><tied type="start"/></notations></note></measure><measure number="55"><attributes><divisions>4</divisions></attributes><note><pitch><step>G</step><alter>0</alter><octave>3</octave></pitch><duration>12</duration><type>half</type><dot/><notations><tied type="stop"/></notations></note></measure><measure number="56"><attributes><divisions>8</divisions></attributes><note><rest/><duration>12</duration><type>quarter</type><dot/></note><note><pitch><step>A</step><alter>0</alter><octave>3</octave></pitch><duration>12</duration><type>quarter</type><dot/></note></measure><measure number="57"><attributes><divisions>8</divisions></attributes><note><pitch><step>B</step><alter>-1</alter><octave>3</octave></pitch><duration>4</duration><type>eighth</type><beam number="1">begin</beam></note><note><pitch><step>B</step><alter>-1</alter><octave>3</octave></pitch><duration>4</duration><type>eighth</type><beam number="1">end</beam><notations><tied type="start"/></notations></note><note><pitch><step>B</step><alter>-1</alter><octave>3</octave></pitch><duration>8</duration><type>quarter</type><notations><tied type="stop"/></notations></note><note><pitch><step>A</step><alter>0</alter><octave>3</octave></pitch><duration>8</duration><type>quarter</type></note></measure><measure number="58"><attributes><divisions>8</divisions></attributes><note><pitch><step>G</step><alter>0</alter><octave>3</octave></pitch><duration>4</duration><type>eighth</type><beam number="1">begin</beam></note><note><pitch><step>F</step><alter>0</alter><octave>3</octave></pitch><duration>4</duration><type>eighth</type><beam number="1">end</beam><notations><tied type="start"/></notations></note><note><pitch><step>F</step><alter>0</alter><octave>3</octave></pitch><duration>8</duration><type>quarter</type><notations><tied type="stop"/></notations></note><note><pitch><step>E</step><alter>0</alter><octave>3</octave></pitch><duration>8</duration><type>quarter</type></note></measure><measure number="59"><attributes><divisions>4</divisions></attributes><note><pitch><step>F</step><alter>0</alter><octave>3</octave></pitch><duration>12</duration><type>half</type><dot/><notations><tied type="start"/></notations></note></measure><measure number="60"><attributes><divisions>4</divisions></attributes><note><pitch><step>F</step><alter>0</alter><octave>3</octave></pitch><duration>4</duration><type>quarter</type><notations><tied type="stop"/></notations></note><note><rest/><duration>4</duration><type>quarter</type></note><note><rest/><duration>4</duration><type>quarter</type></note><barline><bar-style>light-heavy</bar-style></barline></measure></part></score-partwise>